# xmcd
#
# Track frame offsets:
#	150
#	13240
#	26252
#	36600
#	46171
#	56136
#	66501
#	78449
#	88421
#	97254
#	110612
#	120050
#	137880
#	150188
#	163878
#	174988
#	189233
#	198883
#
# Disc length: 2817
#
# Revision: 2
# Processed by: cddbd v1.5.1PL0 Copyright (c) Steve Scherf et al.
# Submitted via: ExactAudioCopy v0.90b4
# Normalized: r1:DSETVAR1
#
DISCID=f20aff12
DTITLE=Various Artist - 50 years of Country (1960-1980)  cd1
DYEAR=2000
DGENRE=Country
TTITLE0=Willy Nelson - Crazy
TTITLE1=Johnny Tillotson - Send me the pillow that you dream on
TTITLE2=Rose Maddox - Rollin' in my sweet baby's arms
TTITLE3=George Jones - The race is on
TTITLE4=Jean Shepard - Second Fiddle
TTITLE5=Jody Miller - Queen of the house
TTITLE6=Del Reeves - Girl on the billboard
TTITLE7=Kay dams - Little pink mack
TTITLE8=Qanda Jackson - Jambalaya
TTITLE9=Tammy Wynette - D.I.V.O.R.C.E.
TTITLE10=Glen Campbell and Bobbie GEntry - Let it be me
TTITLE11=Bobby Goldsboro - Honey
TTITLE12=Merle Haggard and The Strangers - Okie from Muskogee
TTITLE13=Billie Jo Spears - Mr. Walker, it's all over
TTITLE14=Susan Raye - Willy Jones
TTITLE15=Red Simpson - I'm a truck
TTITLE16=Freddie Hart - My hang up is you
TTITLE17=Asleep at the wheel - I've been everywhere
EXTD=ID3G: 2
EXTT0=
EXTT1=
EXTT2=
EXTT3=
EXTT4=
EXTT5=
EXTT6=
EXTT7=
EXTT8=
EXTT9=
EXTT10=
EXTT11=
EXTT12=
EXTT13=
EXTT14=
EXTT15=
EXTT16=
EXTT17=
PLAYORDER=
